<mxfile host="app.diagrams.net" agent="Mozilla/5.0 (Windows NT 10.0; Win64; x64) AppleWebKit/537.36 (KHTML, like Gecko) Chrome/131.0.0.0 Safari/537.36 Edg/131.0.0.0" version="24.9.3">
  <diagram name="Página-1" id="gRVMVpDpoVkk9xhdMn4D">
    <mxGraphModel dx="2321" dy="575" grid="1" gridSize="10" guides="1" tooltips="1" connect="1" arrows="1" fold="1" page="1" pageScale="1" pageWidth="827" pageHeight="1169" math="0" shadow="0">
      <root>
        <mxCell id="0" />
        <mxCell id="1" parent="0" />
        <mxCell id="1j-Fz3y38QjPHcwMiIqq-1" value="Cliente" style="shape=umlActor;verticalLabelPosition=bottom;verticalAlign=top;html=1;outlineConnect=0;" vertex="1" parent="1">
          <mxGeometry x="-60" y="240" width="80" height="120" as="geometry" />
        </mxCell>
        <mxCell id="1j-Fz3y38QjPHcwMiIqq-16" value="" style="swimlane;startSize=0;" vertex="1" parent="1">
          <mxGeometry x="123" width="740" height="670" as="geometry" />
        </mxCell>
        <mxCell id="1j-Fz3y38QjPHcwMiIqq-17" value="fazer login/logout" style="ellipse;whiteSpace=wrap;html=1;" vertex="1" parent="1j-Fz3y38QjPHcwMiIqq-16">
          <mxGeometry x="46" y="20" width="120" height="50" as="geometry" />
        </mxCell>
        <mxCell id="1j-Fz3y38QjPHcwMiIqq-8" value="colocar itens no carrinho" style="ellipse;whiteSpace=wrap;html=1;" vertex="1" parent="1j-Fz3y38QjPHcwMiIqq-16">
          <mxGeometry x="34.5" y="197" width="129" height="57" as="geometry" />
        </mxCell>
        <mxCell id="1j-Fz3y38QjPHcwMiIqq-9" value="finalizar compra" style="ellipse;whiteSpace=wrap;html=1;" vertex="1" parent="1j-Fz3y38QjPHcwMiIqq-16">
          <mxGeometry x="33.5" y="280" width="131" height="50" as="geometry" />
        </mxCell>
        <mxCell id="1j-Fz3y38QjPHcwMiIqq-11" value="enviar feedbacks" style="ellipse;whiteSpace=wrap;html=1;" vertex="1" parent="1j-Fz3y38QjPHcwMiIqq-16">
          <mxGeometry x="47" y="515" width="120" height="50" as="geometry" />
        </mxCell>
        <mxCell id="1j-Fz3y38QjPHcwMiIqq-13" value="informar endereço" style="ellipse;whiteSpace=wrap;html=1;" vertex="1" parent="1j-Fz3y38QjPHcwMiIqq-16">
          <mxGeometry x="46.5" y="420" width="121" height="60" as="geometry" />
        </mxCell>
        <mxCell id="1j-Fz3y38QjPHcwMiIqq-7" value="Navegar pelo catálogo" style="ellipse;whiteSpace=wrap;html=1;" vertex="1" parent="1j-Fz3y38QjPHcwMiIqq-16">
          <mxGeometry x="44" y="130" width="118" height="51" as="geometry" />
        </mxCell>
        <mxCell id="1j-Fz3y38QjPHcwMiIqq-20" value="atualizar dados" style="ellipse;whiteSpace=wrap;html=1;" vertex="1" parent="1j-Fz3y38QjPHcwMiIqq-16">
          <mxGeometry x="44" y="80" width="119" height="40" as="geometry" />
        </mxCell>
        <mxCell id="1j-Fz3y38QjPHcwMiIqq-21" value="extend" style="html=1;verticalAlign=bottom;endArrow=open;dashed=1;endSize=8;curved=0;rounded=0;exitX=0.5;exitY=1;exitDx=0;exitDy=0;entryX=0.5;entryY=0;entryDx=0;entryDy=0;" edge="1" parent="1j-Fz3y38QjPHcwMiIqq-16" source="1j-Fz3y38QjPHcwMiIqq-9" target="1j-Fz3y38QjPHcwMiIqq-13">
          <mxGeometry relative="1" as="geometry">
            <mxPoint x="260" y="300" as="sourcePoint" />
            <mxPoint x="180" y="300" as="targetPoint" />
          </mxGeometry>
        </mxCell>
        <mxCell id="1j-Fz3y38QjPHcwMiIqq-22" value="Preencher os dados do cartão" style="ellipse;whiteSpace=wrap;html=1;" vertex="1" parent="1j-Fz3y38QjPHcwMiIqq-16">
          <mxGeometry x="280" y="262.5" width="125" height="55" as="geometry" />
        </mxCell>
        <mxCell id="1j-Fz3y38QjPHcwMiIqq-23" value="extend" style="html=1;verticalAlign=bottom;endArrow=open;dashed=1;endSize=8;curved=0;rounded=0;exitX=1;exitY=0.5;exitDx=0;exitDy=0;entryX=0;entryY=0.5;entryDx=0;entryDy=0;" edge="1" parent="1j-Fz3y38QjPHcwMiIqq-16" source="1j-Fz3y38QjPHcwMiIqq-9" target="1j-Fz3y38QjPHcwMiIqq-22">
          <mxGeometry relative="1" as="geometry">
            <mxPoint x="85" y="320" as="sourcePoint" />
            <mxPoint x="85" y="380" as="targetPoint" />
          </mxGeometry>
        </mxCell>
        <mxCell id="1j-Fz3y38QjPHcwMiIqq-24" value="Verifica os dados do cartão" style="ellipse;whiteSpace=wrap;html=1;" vertex="1" parent="1j-Fz3y38QjPHcwMiIqq-16">
          <mxGeometry x="560" y="280" width="110" height="50" as="geometry" />
        </mxCell>
        <mxCell id="1j-Fz3y38QjPHcwMiIqq-25" value="faturar compras" style="ellipse;whiteSpace=wrap;html=1;" vertex="1" parent="1j-Fz3y38QjPHcwMiIqq-16">
          <mxGeometry x="560" y="360" width="110" height="50" as="geometry" />
        </mxCell>
        <mxCell id="1j-Fz3y38QjPHcwMiIqq-26" value="enviar email" style="ellipse;whiteSpace=wrap;html=1;" vertex="1" parent="1j-Fz3y38QjPHcwMiIqq-16">
          <mxGeometry x="550" y="515" width="110" height="50" as="geometry" />
        </mxCell>
        <mxCell id="1j-Fz3y38QjPHcwMiIqq-27" value="Gerir estoque de&amp;nbsp; produtos" style="ellipse;whiteSpace=wrap;html=1;" vertex="1" parent="1j-Fz3y38QjPHcwMiIqq-16">
          <mxGeometry x="550" y="50" width="110" height="50" as="geometry" />
        </mxCell>
        <mxCell id="1j-Fz3y38QjPHcwMiIqq-28" value="Editar informações" style="ellipse;whiteSpace=wrap;html=1;" vertex="1" parent="1j-Fz3y38QjPHcwMiIqq-16">
          <mxGeometry x="550" y="131" width="110" height="50" as="geometry" />
        </mxCell>
        <mxCell id="1j-Fz3y38QjPHcwMiIqq-29" value="Include" style="html=1;verticalAlign=bottom;endArrow=open;dashed=1;endSize=8;curved=0;rounded=0;exitX=1;exitY=1;exitDx=0;exitDy=0;" edge="1" parent="1j-Fz3y38QjPHcwMiIqq-16" source="1j-Fz3y38QjPHcwMiIqq-9" target="1j-Fz3y38QjPHcwMiIqq-25">
          <mxGeometry relative="1" as="geometry">
            <mxPoint x="140" y="300" as="sourcePoint" />
            <mxPoint x="237" y="300" as="targetPoint" />
          </mxGeometry>
        </mxCell>
        <mxCell id="1j-Fz3y38QjPHcwMiIqq-31" value="include" style="html=1;verticalAlign=bottom;endArrow=open;dashed=1;endSize=8;curved=0;rounded=0;entryX=0;entryY=0.5;entryDx=0;entryDy=0;" edge="1" parent="1j-Fz3y38QjPHcwMiIqq-16" target="1j-Fz3y38QjPHcwMiIqq-24">
          <mxGeometry relative="1" as="geometry">
            <mxPoint x="410" y="292" as="sourcePoint" />
            <mxPoint x="461" y="291.29" as="targetPoint" />
          </mxGeometry>
        </mxCell>
        <mxCell id="1j-Fz3y38QjPHcwMiIqq-32" value="receber pedidos" style="ellipse;whiteSpace=wrap;html=1;" vertex="1" parent="1j-Fz3y38QjPHcwMiIqq-16">
          <mxGeometry x="550" y="197" width="110" height="50" as="geometry" />
        </mxCell>
        <mxCell id="1j-Fz3y38QjPHcwMiIqq-33" value="Gerir pagamentos/&amp;nbsp;" style="ellipse;whiteSpace=wrap;html=1;" vertex="1" parent="1j-Fz3y38QjPHcwMiIqq-16">
          <mxGeometry x="550" y="437" width="110" height="50" as="geometry" />
        </mxCell>
        <mxCell id="1j-Fz3y38QjPHcwMiIqq-51" value="Compra de produtos" style="text;html=1;align=center;verticalAlign=middle;whiteSpace=wrap;rounded=0;" vertex="1" parent="1j-Fz3y38QjPHcwMiIqq-16">
          <mxGeometry x="291" y="20" width="129" height="30" as="geometry" />
        </mxCell>
        <mxCell id="1j-Fz3y38QjPHcwMiIqq-34" value="" style="endArrow=classic;html=1;rounded=0;entryX=0;entryY=0.5;entryDx=0;entryDy=0;exitX=0.75;exitY=0;exitDx=0;exitDy=0;" edge="1" parent="1" source="1j-Fz3y38QjPHcwMiIqq-40" target="1j-Fz3y38QjPHcwMiIqq-17">
          <mxGeometry width="50" height="50" relative="1" as="geometry">
            <mxPoint x="100" y="250" as="sourcePoint" />
            <mxPoint x="120" y="160" as="targetPoint" />
          </mxGeometry>
        </mxCell>
        <mxCell id="1j-Fz3y38QjPHcwMiIqq-35" value="" style="endArrow=classic;html=1;rounded=0;entryX=0;entryY=0.5;entryDx=0;entryDy=0;exitX=1;exitY=0;exitDx=0;exitDy=0;" edge="1" parent="1" source="1j-Fz3y38QjPHcwMiIqq-40" target="1j-Fz3y38QjPHcwMiIqq-20">
          <mxGeometry width="50" height="50" relative="1" as="geometry">
            <mxPoint x="80" y="200" as="sourcePoint" />
            <mxPoint x="150" y="280" as="targetPoint" />
          </mxGeometry>
        </mxCell>
        <mxCell id="1j-Fz3y38QjPHcwMiIqq-36" value="" style="endArrow=classic;html=1;rounded=0;entryX=0;entryY=0.5;entryDx=0;entryDy=0;exitX=1;exitY=0.25;exitDx=0;exitDy=0;" edge="1" parent="1" source="1j-Fz3y38QjPHcwMiIqq-40" target="1j-Fz3y38QjPHcwMiIqq-7">
          <mxGeometry width="50" height="50" relative="1" as="geometry">
            <mxPoint x="30" y="310" as="sourcePoint" />
            <mxPoint x="181" y="130" as="targetPoint" />
          </mxGeometry>
        </mxCell>
        <mxCell id="1j-Fz3y38QjPHcwMiIqq-37" value="" style="endArrow=classic;html=1;rounded=0;entryX=0;entryY=0.5;entryDx=0;entryDy=0;exitX=0.982;exitY=0.394;exitDx=0;exitDy=0;exitPerimeter=0;" edge="1" parent="1" source="1j-Fz3y38QjPHcwMiIqq-40" target="1j-Fz3y38QjPHcwMiIqq-8">
          <mxGeometry width="50" height="50" relative="1" as="geometry">
            <mxPoint x="120" y="310" as="sourcePoint" />
            <mxPoint x="191" y="140" as="targetPoint" />
          </mxGeometry>
        </mxCell>
        <mxCell id="1j-Fz3y38QjPHcwMiIqq-38" value="" style="endArrow=classic;html=1;rounded=0;entryX=0;entryY=0.5;entryDx=0;entryDy=0;exitX=1.031;exitY=0.616;exitDx=0;exitDy=0;exitPerimeter=0;" edge="1" parent="1" source="1j-Fz3y38QjPHcwMiIqq-40" target="1j-Fz3y38QjPHcwMiIqq-9">
          <mxGeometry width="50" height="50" relative="1" as="geometry">
            <mxPoint x="140" y="320" as="sourcePoint" />
            <mxPoint x="201" y="150" as="targetPoint" />
          </mxGeometry>
        </mxCell>
        <mxCell id="1j-Fz3y38QjPHcwMiIqq-40" value="" style="swimlane;startSize=0;" vertex="1" parent="1">
          <mxGeometry x="-90" y="220" width="140" height="170" as="geometry" />
        </mxCell>
        <mxCell id="1j-Fz3y38QjPHcwMiIqq-41" value="" style="endArrow=classic;html=1;rounded=0;entryX=0;entryY=0.5;entryDx=0;entryDy=0;exitX=1;exitY=0.75;exitDx=0;exitDy=0;" edge="1" parent="1" source="1j-Fz3y38QjPHcwMiIqq-40" target="1j-Fz3y38QjPHcwMiIqq-13">
          <mxGeometry width="50" height="50" relative="1" as="geometry">
            <mxPoint x="64" y="335" as="sourcePoint" />
            <mxPoint x="179" y="320" as="targetPoint" />
          </mxGeometry>
        </mxCell>
        <mxCell id="1j-Fz3y38QjPHcwMiIqq-42" value="" style="endArrow=classic;html=1;rounded=0;entryX=0;entryY=0.5;entryDx=0;entryDy=0;exitX=1;exitY=1;exitDx=0;exitDy=0;" edge="1" parent="1" source="1j-Fz3y38QjPHcwMiIqq-40" target="1j-Fz3y38QjPHcwMiIqq-11">
          <mxGeometry width="50" height="50" relative="1" as="geometry">
            <mxPoint x="74" y="345" as="sourcePoint" />
            <mxPoint x="189" y="330" as="targetPoint" />
          </mxGeometry>
        </mxCell>
        <mxCell id="1j-Fz3y38QjPHcwMiIqq-43" value="" style="swimlane;startSize=0;" vertex="1" parent="1">
          <mxGeometry x="950" y="219" width="170" height="179" as="geometry" />
        </mxCell>
        <mxCell id="1j-Fz3y38QjPHcwMiIqq-5" value="Sistema" style="shape=umlActor;verticalLabelPosition=bottom;verticalAlign=top;html=1;outlineConnect=0;" vertex="1" parent="1j-Fz3y38QjPHcwMiIqq-43">
          <mxGeometry x="39" y="29" width="90" height="120" as="geometry" />
        </mxCell>
        <mxCell id="1j-Fz3y38QjPHcwMiIqq-44" value="" style="endArrow=classic;html=1;rounded=0;entryX=1;entryY=0.5;entryDx=0;entryDy=0;exitX=0;exitY=0;exitDx=0;exitDy=0;" edge="1" parent="1" source="1j-Fz3y38QjPHcwMiIqq-43" target="1j-Fz3y38QjPHcwMiIqq-27">
          <mxGeometry width="50" height="50" relative="1" as="geometry">
            <mxPoint x="790" y="430" as="sourcePoint" />
            <mxPoint x="840" y="380" as="targetPoint" />
          </mxGeometry>
        </mxCell>
        <mxCell id="1j-Fz3y38QjPHcwMiIqq-45" value="" style="endArrow=classic;html=1;rounded=0;entryX=1;entryY=0.5;entryDx=0;entryDy=0;exitX=0;exitY=0.25;exitDx=0;exitDy=0;" edge="1" parent="1" source="1j-Fz3y38QjPHcwMiIqq-43" target="1j-Fz3y38QjPHcwMiIqq-28">
          <mxGeometry width="50" height="50" relative="1" as="geometry">
            <mxPoint x="790" y="430" as="sourcePoint" />
            <mxPoint x="840" y="380" as="targetPoint" />
          </mxGeometry>
        </mxCell>
        <mxCell id="1j-Fz3y38QjPHcwMiIqq-46" value="" style="endArrow=classic;html=1;rounded=0;entryX=1;entryY=0.5;entryDx=0;entryDy=0;exitX=0;exitY=0.5;exitDx=0;exitDy=0;" edge="1" parent="1" source="1j-Fz3y38QjPHcwMiIqq-43" target="1j-Fz3y38QjPHcwMiIqq-32">
          <mxGeometry width="50" height="50" relative="1" as="geometry">
            <mxPoint x="790" y="430" as="sourcePoint" />
            <mxPoint x="840" y="380" as="targetPoint" />
          </mxGeometry>
        </mxCell>
        <mxCell id="1j-Fz3y38QjPHcwMiIqq-47" value="" style="endArrow=classic;html=1;rounded=0;entryX=1;entryY=0.5;entryDx=0;entryDy=0;exitX=0.001;exitY=0.664;exitDx=0;exitDy=0;exitPerimeter=0;" edge="1" parent="1" source="1j-Fz3y38QjPHcwMiIqq-43" target="1j-Fz3y38QjPHcwMiIqq-24">
          <mxGeometry width="50" height="50" relative="1" as="geometry">
            <mxPoint x="940" y="350" as="sourcePoint" />
            <mxPoint x="840" y="380" as="targetPoint" />
          </mxGeometry>
        </mxCell>
        <mxCell id="1j-Fz3y38QjPHcwMiIqq-48" value="" style="endArrow=classic;html=1;rounded=0;entryX=1;entryY=0.5;entryDx=0;entryDy=0;exitX=-0.01;exitY=0.853;exitDx=0;exitDy=0;exitPerimeter=0;" edge="1" parent="1" source="1j-Fz3y38QjPHcwMiIqq-43" target="1j-Fz3y38QjPHcwMiIqq-25">
          <mxGeometry width="50" height="50" relative="1" as="geometry">
            <mxPoint x="790" y="430" as="sourcePoint" />
            <mxPoint x="840" y="380" as="targetPoint" />
          </mxGeometry>
        </mxCell>
        <mxCell id="1j-Fz3y38QjPHcwMiIqq-49" value="" style="endArrow=classic;html=1;rounded=0;exitX=0;exitY=1;exitDx=0;exitDy=0;entryX=1;entryY=0.5;entryDx=0;entryDy=0;" edge="1" parent="1" source="1j-Fz3y38QjPHcwMiIqq-43" target="1j-Fz3y38QjPHcwMiIqq-33">
          <mxGeometry width="50" height="50" relative="1" as="geometry">
            <mxPoint x="790" y="430" as="sourcePoint" />
            <mxPoint x="840" y="380" as="targetPoint" />
          </mxGeometry>
        </mxCell>
        <mxCell id="1j-Fz3y38QjPHcwMiIqq-50" value="" style="endArrow=classic;html=1;rounded=0;exitX=0.25;exitY=1;exitDx=0;exitDy=0;entryX=1;entryY=0.5;entryDx=0;entryDy=0;" edge="1" parent="1" source="1j-Fz3y38QjPHcwMiIqq-43" target="1j-Fz3y38QjPHcwMiIqq-26">
          <mxGeometry width="50" height="50" relative="1" as="geometry">
            <mxPoint x="790" y="430" as="sourcePoint" />
            <mxPoint x="840" y="380" as="targetPoint" />
          </mxGeometry>
        </mxCell>
      </root>
    </mxGraphModel>
  </diagram>
</mxfile>
